<?xml version="1.0" encoding="UTF-8"?>
<svg xmlns="http://www.w3.org/2000/svg" xmlns:xlink="http://www.w3.org/1999/xlink" viewBox="0 0 400.16 249.81">
  <defs>
    <style>
      .cls-1 {
        fill: #fff;
      }

      .cls-2 {
        clip-rule: evenodd;
        fill: none;
      }

      .cls-3 {
        fill: #e3322b;
      }

      .cls-3, .cls-4, .cls-5 {
        fill-rule: evenodd;
      }

      .cls-4 {
        fill: #587abc;
      }

      .cls-6 {
        clip-path: url(#clippath);
      }

      .cls-5 {
        fill: #f7941d;
      }
    </style>
    <clipPath id="clippath">
      <path class="cls-2" d="M161.24.56c6.99,2.85,4.64,15.93,7.5,15.86,35.58.01,128.54,0,142.21,0,1.23-.09,2.3.95,3.11,1.94,2.39,2.74,3.47,7.77,1.01,11.41-1.72,2.82-3.26,2.78-7.04,2.71-14.86.09-42.81.24-60.15.34-55.65.33-123.19.33-178.76,0-16.93-.09-48.52-.27-60.44-.34-2.98-.08-4.29.31-5.91-1.15C.46,29.09-.58,25.39.33,22.27c.98-2.98,2.15-4.82,4.64-5.34,10.06-.28,49.14-.3,65.01-.46,15.1-.11,54.31-.28,77.67-.48,2.32-.16,2.04-2.76,2.37-4.73.23-2.08.49-4.16,1.27-6.06,1.36-3.91,6.01-6.28,9.8-4.7M386.82,38.05c4.1,1.79,9.94,4.33,12.01,7.9,2.38,5.04-.17,9.83-1.94,14.88-1.48,4.74-3.79,9.56-3.84,14.61.01,5.33,4.16,9.65,5.67,14.39,2.24,7.63,2.08,16.5-1.91,23.46-1.83,3.46-4.17,6.77-7.09,9.81-2.03,2.05-4.08,4.29-5.12,6.76-1.25,2.63-1.31,6.01-1.57,9.02-.33,3.7-1.41,7.49-4.78,9.19-3.51,1.76-9.21,1.86-13.22.65-3.29-.99-5.17-3.63-6.9-6.53-2.16-3.63-4.1-7.94-6.69-11.41-2.08-2.84-4.45-4.57-7.4-7.41-2.06-1.94-4.07-4.18-6.91-4.87-3.14-.81-6.88.16-10.11.8-4.63.93-9.26,1.91-13.98,2.99-27.19,6.86-56.72,14.21-64.59,25.51-2.86,4.13-6.03,10.18-8.65,14.91-8.89,16.33-16.69,27.5-25.23,35.9-7.7,7.42-18.02,14.24-28.75,16.61-14.63,1.48-29.68,1.2-44.46,1.62-6.66-.05-8.12.47-8.02,6.83.18,2.8-.62,6.5,1.25,8.55.97.66,2.29.62,3.51.65,16.24-.01,36.8-.04,53.57.15,6.45.09,11.47.22,14.6.4,2.12.13,3.88.22,5.92,1.82,5.03,3.73,3.43,11.71-1.73,14.23-51.08.88-114.9-.23-164.41-.05-4.04-.05-6.56.06-9.98-.09-3.72-.62-12.3-3.68-16.69-5.79-6.54-3.08-11.76-6.54-16.13-11.86-1.47-1.93-2.5-4.08-2.5-6.47-.06-4.72,5.03-8.75,9.63-7.26,3.96,1.14,6.91,4.66,10.26,6.97,3.93,2.88,8.57,5.03,13.66,6.29,3.19.78,6.67,1.32,9.93,1.44,2.72.08,4.63-.8,5.2-3.82.46-3.07.46-7.35-.41-9.84-1.28-3.72-5.82-3.75-9.08-4.64-6.43-1.46-12.57-3.77-17.83-6.75-10.28-5.76-17.65-14.19-21.33-24.84-1.13-4.21-.69-10.06.01-13.75,8.42-25.39,31.07-45.45,52.8-60.81,13.57-8.64,29.63-16.25,44.18-20.35,8.37-2.25,18.57-3.68,26.86-4.87,3.1-.47,5.68-4.7,7.14-7.74,3.78-7.43,6.61-13.63,10.88-20.56,2.39-4.45,5.91-4.78,10.57-5.09,7.09-.44,15.64-.62,22.47.24,3.4.39,5.49,2.81,7.89,4.99,5.46,5.13,11.93,11.47,17.46,16.99,2.86,2.83,5.94,5.92,8.81,8.73,2.63,2.55,2.98,2.55,4.63,2.54,32.34-.02,95.05.01,119.96,0,2.52.11,2.98-.46,5.71-3.29,2.29-2.47,4.78-4.97,7.27-7.21,3.78-3.14,6.2-7.32,8.49-11.68,3.01-5.75,6.23-12.38,9.46-18.21,2.87-5.06,4.2-7.59,8.32-7.97,4.46-.24,8.9,1.61,12.96,3.26M121.05,100.94c2,.67-.83,6.62-1.32,9.21-3.57,11.97-7.76,26.06-11.43,37.07-1.8,5.48-5.36,10.6-9.63,14.21-3.23,2.69-6.21,3.85-14.48,4.38-6.3.39-12.84.41-19.04.43-12.99.03-28.48.01-41.31,0-1.09-.02-2.29-.1-3-.61-.87-.68-.09-2.14,1.12-4.03,1.51-2.36,3.46-4.9,5.81-7.71,20.17-24.84,53.06-46.21,83.37-52.17,3.29-.53,6.68-1.61,9.83-.8M116.48,224.73c-.2,2.54.63,6.67-1.25,7.73-1.39.37-2.67.12-4.22.19-9.85-.02-36.64.05-42.54-.03-.71-.06-1.21-.22-1.47-.94-.62-3.45-.26-9.13-.22-12.85.11-2.17,1.04-2.21,2.59-2.2,8,.01,38.21-.04,45.03.02,2.99.05,1.83,5.17,2.09,7.89v.2ZM116.48,224.63"/>
    </clipPath>
  </defs>
  <g id="hubschrauber-front-weiss">
    <g>
      <path class="cls-1" d="M8.67,32.48c11.92.07,43.51.24,60.44.34,55.57.33,123.11.33,178.76,0,17.34-.1,45.29-.25,60.15-.34,3.78.07,5.32.11,7.04-2.71,2.46-3.64,1.38-8.67-1.01-11.41-.8-.99-1.88-2.03-3.11-1.94-13.66,0-106.62,0-142.21,0-2.86.07-.51-13.02-7.5-15.86l-.15-.06c-3.79-1.58-8.44.79-9.8,4.7-.78,1.9-1.04,3.98-1.27,6.06-.33,1.97-.05,4.57-2.37,4.73-23.35.2-62.57.37-77.67.48-15.87.17-54.96.18-65.01.46-2.49.52-3.66,2.36-4.64,5.34-.91,3.12.13,6.82,2.43,9.07,1.62,1.45,2.92,1.07,5.91,1.15Z"/>
      <path class="cls-1" d="M212.17,235.24c-2.03-1.6-3.8-1.69-5.92-1.82-3.13-.17-8.15-.31-14.6-.4-16.77-.19-37.34-.16-53.57-.15-1.21-.03-2.53,0-3.51-.65-1.88-2.04-1.07-5.74-1.25-8.55-.09-6.36,1.36-6.88,8.02-6.83,8.76-.25,17.62-.25,26.43-.52l-40.42-134.74c-.85.73-1.77,1.25-2.74,1.4-8.3,1.19-18.49,2.62-26.86,4.87-14.55,4.1-30.61,11.7-44.18,20.35C31.84,123.56,9.2,143.62.77,169.01c-.71,3.69-1.14,9.55-.01,13.75,3.68,10.65,11.05,19.08,21.33,24.84,5.27,2.97,11.4,5.28,17.83,6.75,3.26.89,7.8.91,9.08,4.64.87,2.49.87,6.77.41,9.84-.57,3.02-2.48,3.9-5.2,3.82-3.26-.11-6.75-.65-9.93-1.44-5.09-1.26-9.73-3.4-13.66-6.29-3.35-2.31-6.3-5.83-10.26-6.97-4.6-1.48-9.69,2.54-9.63,7.26,0,2.39,1.03,4.54,2.5,6.47,4.37,5.32,9.59,8.78,16.13,11.86,4.39,2.11,12.98,5.17,16.69,5.79,3.42.15,5.94.04,9.98.09,49.51-.18,113.32.93,164.41.05,5.17-2.52,6.77-10.49,1.73-14.23ZM116.48,224.53v.2c-.2,2.54.63,6.67-1.25,7.73-1.39.37-2.67.12-4.22.19-9.85-.02-36.64.05-42.54-.03-.71-.06-1.21-.22-1.47-.94-.62-3.45-.26-9.13-.22-12.85.11-2.17,1.04-2.21,2.59-2.2,8,.01,38.21-.04,45.03.02,2.99.05,1.83,5.17,2.09,7.89ZM119.73,110.15c-3.57,11.97-7.76,26.06-11.43,37.07-1.8,5.48-5.36,10.6-9.63,14.21-3.23,2.69-6.21,3.85-14.48,4.38-6.3.39-12.84.41-19.04.43-12.99.03-28.48.01-41.31,0-1.09-.02-2.29-.1-3-.61-.87-.68-.09-2.14,1.12-4.03,1.51-2.36,3.46-4.9,5.81-7.71,20.17-24.84,53.06-46.21,83.37-52.17,3.29-.53,6.68-1.61,9.83-.8l.08.04c2,.67-.83,6.62-1.32,9.21Z"/>
    </g>
  </g>
  <g id="hubschrauber-back-genem">
    <g class="cls-6">
      <path class="cls-4" d="M499.7,33.8h-194.72l57,190h194.72l-57-190ZM499.7,33.8"/>
      <path class="cls-5" d="M286.73,33.8h-71.74l57,190h71.74l-57-190ZM286.73,33.8"/>
      <path class="cls-3" d="M195.79,33.8h-65.8l57,190h65.8l-57-190ZM201.73,33.8"/>
    </g>
  </g>
</svg>